<?xml version="1.0" encoding="utf-8"?>
<!-- Generator: Adobe Illustrator 21.0.2, SVG Export Plug-In . SVG Version: 6.00 Build 0)  -->
<svg version="1.1" id="_xB9_Ã_xBC_h_x5F_1" xmlns="http://www.w3.org/2000/svg" xmlns:xlink="http://www.w3.org/1999/xlink"
	 x="0px" y="0px" viewBox="0 0 176.6 182" style="enable-background:new 0 0 176.6 182;" xml:space="preserve">
<style type="text/css">
	.st0{fill:#6C7CBB;}
	.st1{fill:url(#SVGID_1_);}
	.st2{fill:#DB6FA8;}
	.st3{fill:#E83381;}
	.st4{fill:#FFFFFF;}
	.st5{fill:#992A86;}
	.st6{fill:#FADB14;}
	.st7{fill:#6C7CBC;}
</style>
<g>
	<g>
		<g>
			<polygon class="st0" points="98.4,74.7 89.5,81.4 60.9,43 69.8,36.4 			"/>
			
				<rect x="124.5" y="102.6" transform="matrix(0.8021 -0.5973 0.5973 0.8021 -49.851 102.717)" class="st0" width="11.1" height="47.8"/>
			<polygon class="st0" points="122.5,89 118.4,83.1 157.4,55.5 161.6,61.5 			"/>
			
				<rect x="47.1" y="112.4" transform="matrix(0.8022 -0.597 0.597 0.8022 -56.3602 65.7068)" class="st0" width="47.8" height="11.1"/>
			<linearGradient id="SVGID_1_" gradientUnits="userSpaceOnUse" x1="80.8335" y1="67.1947" x2="131.8807" y2="118.2419">
				<stop  offset="0.2269" style="stop-color:#D73183"/>
				<stop  offset="0.4125" style="stop-color:#992A86"/>
				<stop  offset="0.6427" style="stop-color:#6D2383"/>
				<stop  offset="0.9307" style="stop-color:#231E46"/>
			</linearGradient>
			<path class="st1" d="M139.3,107.4c-8.1,18.2-29.5,26.3-47.7,18.2C73.4,117.5,65.3,96.2,73.4,78c8.1-18.2,29.5-26.3,47.7-18.2
				C139.3,67.9,147.4,89.2,139.3,107.4z"/>
			<path class="st2" d="M86.8,77.1c2-4.5,4.9-8.4,8.3-11.6c-6.7,2.8-12.5,8-15.7,15.2c-6.7,14.9,0,32.3,14.9,39
				c1.7,0.8,3.5,1.4,5.3,1.8C85.3,111.9,79.6,93.3,86.8,77.1z"/>
			<path class="st3" d="M80.7,37.1c-5.9,13.3-21.5,19.2-34.8,13.3c-13.3-5.9-19.2-21.5-13.3-34.8C38.5,2.3,54.1-3.6,67.4,2.3
				C80.7,8.2,86.6,23.8,80.7,37.1z"/>
			<path class="st4" d="M42.4,14.9c1.5-3.3,3.6-6.2,6.1-8.5c-4.9,2-9.1,5.9-11.4,11.1C32.1,28.4,37,41.2,47.9,46
				c1.3,0.6,2.6,1,3.9,1.3C41.3,40.4,37.1,26.8,42.4,14.9z"/>
			<path class="st5" d="M68.1,160.9c-8,17.9-29.1,26-47,18c-17.9-8-26-29.1-18-47c8-17.9,29.1-26,47-18S76.1,143,68.1,160.9z"/>
			<path class="st4" d="M16.3,131c2-4.5,4.8-8.3,8.2-11.5c-6.6,2.8-12.3,7.9-15.5,15c-6.6,14.7,0,31.9,14.7,38.4
				c1.7,0.8,3.5,1.3,5.2,1.8C14.9,165.3,9.2,147,16.3,131z"/>
			<path class="st6" d="M176.2,58.6c-1.8,6.5-8.5,10.3-15,8.5c-6.5-1.8-10.3-8.5-8.5-15c1.8-6.5,8.5-10.3,15-8.5
				C174.2,45.4,178,52.1,176.2,58.6z"/>
			<path class="st4" d="M157.1,51.1c0.4-1.6,1.2-3.1,2.2-4.3c-2.1,1.3-3.8,3.3-4.5,5.9c-1.5,5.3,1.7,10.8,7,12.3
				c0.6,0.2,1.2,0.3,1.9,0.3C158.4,62.8,155.5,56.9,157.1,51.1z"/>
			<path class="st7" d="M163,158.7c-3.5,7.9-12.8,11.4-20.7,7.9c-7.9-3.5-11.4-12.8-7.9-20.7c3.5-7.9,12.8-11.4,20.7-7.9
				C163,141.6,166.6,150.8,163,158.7z"/>
			<path class="st4" d="M140.3,145.5c0.9-2,2.1-3.7,3.6-5c-2.9,1.2-5.4,3.5-6.8,6.6c-2.9,6.5,0,14,6.5,16.9c0.8,0.3,1.5,0.6,2.3,0.8
				C139.7,160.6,137.2,152.5,140.3,145.5z"/>
		</g>
	</g>
</g>
</svg>
