<?xml version="1.0" encoding="utf-8"?>
<!-- Generator: Adobe Illustrator 21.0.2, SVG Export Plug-In . SVG Version: 6.00 Build 0)  -->
<svg version="1.1" id="_xB9_Ã_xBC_h_x5F_1" xmlns="http://www.w3.org/2000/svg" xmlns:xlink="http://www.w3.org/1999/xlink"
	 x="0px" y="0px" viewBox="0 0 280 280" style="enable-background:new 0 0 280 280;" xml:space="preserve">
<style type="text/css">
	.st0{clip-path:url(#SVGID_2_);fill:#231E46;}
	.st1{clip-path:url(#SVGID_2_);}
	.st2{fill:#6C7CBB;}
	.st3{fill:url(#SVGID_3_);}
	.st4{fill:#DB6FA8;}
	.st5{fill:#E83381;}
	.st6{fill:#FFFFFF;}
	.st7{fill:#992A86;}
	.st8{fill:#FADB14;}
	.st9{fill:#6C7CBC;}
</style>
<g>
	<g>
		<defs>
			<circle id="SVGID_1_" cx="140" cy="140" r="140"/>
		</defs>
		<clipPath id="SVGID_2_">
			<use xlink:href="#SVGID_1_"  style="overflow:visible;"/>
		</clipPath>
		<circle class="st0" cx="140" cy="140" r="140"/>
		<g class="st1">
			<polygon class="st2" points="150.1,123.7 141.2,130.4 112.6,92 121.5,85.4 			"/>
			
				<rect x="176.2" y="151.6" transform="matrix(0.8021 -0.5973 0.5973 0.8021 -68.8861 143.2845)" class="st2" width="11.1" height="47.8"/>
			<polygon class="st2" points="174.2,138 170,132.1 209.1,104.5 213.3,110.5 			"/>
			
				<rect x="98.8" y="161.4" transform="matrix(0.8022 -0.597 0.597 0.8022 -75.3931 106.2556)" class="st2" width="47.8" height="11.1"/>
			<linearGradient id="SVGID_3_" gradientUnits="userSpaceOnUse" x1="132.5167" y1="116.1951" x2="183.5639" y2="167.2422">
				<stop  offset="0.2269" style="stop-color:#D73183"/>
				<stop  offset="0.4125" style="stop-color:#992A86"/>
				<stop  offset="0.6427" style="stop-color:#6D2383"/>
				<stop  offset="0.9307" style="stop-color:#231E46"/>
			</linearGradient>
			<path class="st3" d="M191,156.5c-8.1,18.2-29.5,26.3-47.7,18.2c-18.2-8.1-26.3-29.5-18.2-47.7c8.1-18.2,29.5-26.3,47.7-18.2
				C191,116.9,199.1,138.3,191,156.5z"/>
			<path class="st4" d="M138.5,126.1c2-4.5,4.9-8.4,8.3-11.6c-6.7,2.8-12.5,8-15.7,15.2c-6.7,14.9,0,32.3,14.9,39
				c1.7,0.8,3.5,1.4,5.3,1.8C137,160.9,131.2,142.3,138.5,126.1z"/>
			<path class="st5" d="M132.4,86.1c-5.9,13.3-21.5,19.2-34.8,13.3c-13.3-5.9-19.2-21.5-13.3-34.8c5.9-13.3,21.5-19.2,34.8-13.3
				C132.4,57.2,138.3,72.8,132.4,86.1z"/>
			<path class="st6" d="M94,63.9c1.5-3.3,3.6-6.2,6.1-8.5c-4.9,2-9.1,5.9-11.4,11.1c-4.9,10.9,0,23.6,10.9,28.5
				c1.3,0.6,2.6,1,3.9,1.3C93,89.4,88.8,75.8,94,63.9z"/>
			<path class="st7" d="M119.7,209.9c-8,17.9-29.1,26-47,18c-17.9-8-26-29.1-18-47c8-17.9,29.1-26,47-18
				C119.7,171,127.8,192,119.7,209.9z"/>
			<path class="st6" d="M68,180c2-4.5,4.8-8.3,8.2-11.5c-6.6,2.8-12.3,7.9-15.5,15c-6.6,14.7,0,31.9,14.7,38.4
				c1.7,0.8,3.5,1.3,5.2,1.8C66.5,214.3,60.8,196,68,180z"/>
			<path class="st8" d="M227.9,107.6c-1.8,6.5-8.5,10.3-15,8.5c-6.5-1.8-10.3-8.5-8.5-15c1.8-6.5,8.5-10.3,15-8.5
				C225.8,94.4,229.7,101.1,227.9,107.6z"/>
			<path class="st6" d="M208.8,100.1c0.4-1.6,1.2-3.1,2.2-4.3c-2.1,1.3-3.8,3.3-4.5,5.9c-1.5,5.3,1.7,10.8,7,12.3
				c0.6,0.2,1.2,0.3,1.9,0.3C210.1,111.8,207.2,105.9,208.8,100.1z"/>
			<path class="st9" d="M214.7,207.7c-3.5,7.9-12.8,11.4-20.7,7.9c-7.9-3.5-11.4-12.8-7.9-20.7c3.5-7.9,12.8-11.4,20.7-7.9
				C214.7,190.6,218.3,199.8,214.7,207.7z"/>
			<path class="st6" d="M192,194.5c0.9-2,2.1-3.7,3.6-5c-2.9,1.2-5.4,3.5-6.8,6.6c-2.9,6.5,0,14,6.5,16.9c0.8,0.3,1.5,0.6,2.3,0.8
				C191.3,209.6,188.8,201.5,192,194.5z"/>
		</g>
	</g>
</g>
</svg>
