<?xml version="1.0" encoding="utf-8"?>
<!-- Generator: Adobe Illustrator 21.0.2, SVG Export Plug-In . SVG Version: 6.00 Build 0)  -->
<svg version="1.1" id="Layer_1" xmlns="http://www.w3.org/2000/svg" xmlns:xlink="http://www.w3.org/1999/xlink" x="0px" y="0px"
	 viewBox="0 0 564.8 644" style="enable-background:new 0 0 564.8 644;" xml:space="preserve">
<style type="text/css">
	.st0{fill:#1A235E;}
	.st1{fill:#6E81E3;}
	.st2{fill:#EDDBA4;}
	.st3{fill:#22313F;}
	.st4{fill:#DADFE1;}
	.st5{fill:#1D1747;}
</style>
<g id="XMLID_32040_">
	<path id="XMLID_32131_" class="st0" d="M527.5,408.4c0.2,3.4,0.1,5.4,0.1,5.4L356.2,576.4c-35.2,12.7-54.3,19.1-73.7,19
		c-19.4,0-38.5-6.4-73.7-19L37.5,413.8c0,0-0.1-2,0.1-5.4c0.5-11.3,3.8-38.3,22.7-60.7c19.8-23.6,56.9-42,126-31.9
		c5.1-9.1,10.4-17.9,15.9-26.4c21.5-33.2,57.5-45.5,80.4-45.5c22.8,0,58.9,12.3,80.4,45.5c5.5,8.4,10.8,17.3,15.9,26.4
		c69.1-10.2,106.2,8.3,126,31.9C523.6,370.1,526.9,397.1,527.5,408.4z"/>
	<path id="XMLID_30481_" class="st1" d="M35,405.9c-0.8-2.5-3.5-3.9-5.9-3.1l-25.7,8.1c-2.5,0.8-3.9,3.5-3.1,5.9l70.6,223.9
		c0.8,2.5,3.5,3.9,5.9,3.1l25.7-8.1c2.5-0.8,3.9-3.5,3.1-5.9L35,405.9z"/>
	<path id="XMLID_30480_" class="st1" d="M561.5,410.9l-25.7-8.1c-2.5-0.8-5.2,0.6-5.9,3.1l-70.6,223.9c-0.8,2.5,0.6,5.2,3.1,5.9
		l25.7,8.1c2.5,0.8,5.2-0.6,5.9-3.1l70.6-223.9C565.4,414.3,564,411.7,561.5,410.9z"/>
	<path id="XMLID_32103_" class="st2" d="M282.5,392.3c39.1,0.5,76.5,32.4,73.6,78c-1,17.6-8.2,33.6-19.5,45.8
		c-1.6,1.8-3.4,3.5-5.2,5.1c-13.4,11.9-30.5,18.6-48.9,18.6c-18.4,0-35.6-6.7-48.9-18.6c-1.8-1.6-3.6-3.3-5.2-5.1
		c-11.3-12.2-18.5-28.2-19.5-45.8C206,424.8,243.4,392.8,282.5,392.3z M341.3,463h7.3c-0.7-15.5-6.8-29.6-16.4-40.5l-5.2,5.2
		C335.4,437.2,340.6,449.5,341.3,463z M348.6,470.3h-7.3c-0.9,13.3-6.3,25.4-14.7,34.8l5.2,5.2C341.4,499.6,347.6,485.6,348.6,470.3
		z M326.7,463h7.3c-0.7-11.5-5.1-21.9-12.1-30.2l-5.2,5.2C322.4,444.9,326.1,453.5,326.7,463z M333.9,470.3h-7.3
		c-0.9,9.3-4.6,17.8-10.4,24.5l5.2,5.2C328.5,491.9,333,481.6,333.9,470.3z M322,422.4l5.2-5.2c-10.8-9.9-25-16.3-40.6-17.3v7.3
		C300.2,408.2,312.5,413.8,322,422.4z M326.6,515.5l-5.2-5.2c-9.4,8.3-21.5,13.7-34.9,14.7v7.3C301.9,531.3,315.8,525.1,326.6,515.5
		z M312,463h7.3c-0.6-7.4-3.4-14.3-7.8-19.8l-5.2,5.2C309.5,452.6,311.5,457.6,312,463z M319.3,470.3h-7.4c-0.7,5.3-2.9,10.1-6,14.1
		l5.2,5.2C315.5,484.2,318.5,477.6,319.3,470.3z M311.7,432.7l5.2-5.2c-8.2-7.3-18.7-12.1-30.3-13v7.3
		C296.2,422.8,304.9,426.7,311.7,432.7z M316.3,505.1l-5.2-5.2c-6.7,5.7-15.2,9.5-24.5,10.4v7.3
		C297.9,516.7,308.2,512.2,316.3,505.1z M301.3,443.1l5.2-5.2c-5.5-4.7-12.4-7.8-19.9-8.7v7.4C292.2,437.4,297.2,439.7,301.3,443.1z
		 M305.9,494.8l-5.2-5.2c-4,3.1-8.8,5.3-14.1,6v7.4C293.9,502.2,300.5,499.2,305.9,494.8z M279.3,532.3V525
		c-13.5-0.7-25.8-5.9-35.4-14.2l-5.2,5.2C249.7,525.6,263.8,531.6,279.3,532.3z M279.3,517.7v-7.3c-9.5-0.7-18.1-4.3-25-9.9
		l-5.2,5.2C257.4,512.6,267.8,517,279.3,517.7z M279.3,503.1v-7.3c-5.4-0.6-10.4-2.6-14.6-5.7l-5.2,5.2
		C265,499.6,271.9,502.5,279.3,503.1z M279.3,436.4v-7.3c-7.7,0.6-14.8,3.6-20.4,8.3l5.2,5.2C268.3,439.2,273.6,437,279.3,436.4z
		 M279.3,421.8v-7.3c-11.7,0.7-22.4,5.3-30.8,12.6l5.2,5.2C260.7,426.3,269.6,422.5,279.3,421.8z M279.3,407.2v-7.3
		c-15.8,0.7-30.1,7-41.1,16.9l5.2,5.2C253,413.3,265.6,407.9,279.3,407.2z M254.2,490.2l5.2-5.2c-3.4-4.1-5.7-9.2-6.5-14.8h-7.4
		C246.4,477.9,249.5,484.7,254.2,490.2z M258.9,447.8l-5.2-5.2c-4.7,5.7-7.7,12.7-8.3,20.4h7.3C253.3,457.3,255.5,452.1,258.9,447.8
		z M243.9,500.6l5.2-5.2c-6-6.8-10-15.5-10.9-25.1h-7.3C231.8,481.9,236.6,492.4,243.9,500.6z M248.5,437.4l-5.2-5.2
		c-7.3,8.4-11.9,19-12.6,30.8h7.3C238.8,453.3,242.6,444.4,248.5,437.4z M233.5,510.9l5.2-5.2c-8.6-9.5-14.2-21.8-15.2-35.4h-7.3
		C217.2,485.9,223.6,500.1,233.5,510.9z M238.2,427l-5.2-5.2c-9.9,11-16.1,25.4-16.9,41.1h7.3C224.2,449.2,229.6,436.7,238.2,427z"
		/>
	<path id="XMLID_32102_" class="st3" d="M348.6,463h-7.3c-0.7-13.5-5.9-25.8-14.2-35.4l5.2-5.2C341.9,433.4,347.9,447.5,348.6,463z"
		/>
	<path id="XMLID_32101_" class="st3" d="M341.3,470.3h7.3c-1,15.3-7.1,29.3-16.8,40l-5.2-5.2C334.9,495.7,340.3,483.6,341.3,470.3z"
		/>
	<path id="XMLID_32100_" class="st3" d="M334,463h-7.3c-0.6-9.5-4.3-18.1-9.9-25l5.2-5.2C328.9,441.1,333.3,451.5,334,463z"/>
	<path id="XMLID_32099_" class="st3" d="M326.6,470.3h7.3c-0.9,11.3-5.5,21.6-12.5,29.7l-5.2-5.2C322,488.1,325.7,479.6,326.6,470.3
		z"/>
	<path id="XMLID_32098_" class="st3" d="M327.2,417.2l-5.2,5.2c-9.5-8.6-21.8-14.2-35.4-15.2v-7.3
		C302.2,400.9,316.4,407.3,327.2,417.2z"/>
	<path id="XMLID_32097_" class="st3" d="M321.4,510.3l5.2,5.2c-10.8,9.7-24.7,15.8-40,16.8V525C299.9,524,312,518.7,321.4,510.3z"/>
	<path id="XMLID_32096_" class="st3" d="M319.4,463H312c-0.6-5.4-2.6-10.4-5.7-14.6l5.2-5.2C315.9,448.7,318.8,455.6,319.4,463z"/>
	<path id="XMLID_32095_" class="st3" d="M311.9,470.3h7.4c-0.8,7.3-3.8,13.9-8.2,19.3l-5.2-5.2C309,480.4,311.2,475.6,311.9,470.3z"
		/>
	<path id="XMLID_32094_" class="st3" d="M316.9,427.6l-5.2,5.2c-6.8-6-15.5-10-25.1-10.9v-7.3C298.2,415.5,308.7,420.2,316.9,427.6z
		"/>
	<path id="XMLID_32093_" class="st3" d="M311.1,500l5.2,5.2c-8.1,7-18.4,11.6-29.7,12.5v-7.3C295.9,509.4,304.4,505.7,311.1,500z"/>
	<path id="XMLID_32092_" class="st3" d="M306.5,437.9l-5.2,5.2c-4.1-3.4-9.2-5.7-14.8-6.5v-7.4C294.2,430.1,301,433.2,306.5,437.9z"
		/>
	<path id="XMLID_32091_" class="st3" d="M300.7,489.6l5.2,5.2c-5.4,4.4-12,7.4-19.3,8.2v-7.4C291.9,494.9,296.7,492.7,300.7,489.6z"
		/>
	<path id="XMLID_32090_" class="st3" d="M279.3,525v7.3c-15.5-0.7-29.6-6.8-40.5-16.3l5.2-5.2C253.5,519.1,265.8,524.3,279.3,525z"
		/>
	<path id="XMLID_32089_" class="st3" d="M279.3,510.4v7.3c-11.5-0.7-21.9-5.1-30.2-12.1l5.2-5.2
		C261.2,506.1,269.8,509.8,279.3,510.4z"/>
	<path id="XMLID_32088_" class="st3" d="M279.3,495.7v7.3c-7.4-0.6-14.3-3.4-19.8-7.8l5.2-5.2C268.9,493.2,273.9,495.2,279.3,495.7z
		"/>
	<path id="XMLID_32087_" class="st3" d="M279.3,429.1v7.3c-5.7,0.6-11,2.8-15.2,6.2l-5.2-5.2C264.5,432.8,271.6,429.7,279.3,429.1z"
		/>
	<path id="XMLID_32086_" class="st3" d="M279.3,414.5v7.3c-9.7,0.7-18.6,4.5-25.6,10.4l-5.2-5.2
		C256.9,419.8,267.6,415.2,279.3,414.5z"/>
	<path id="XMLID_32085_" class="st3" d="M279.3,399.8v7.3c-13.7,0.7-26.3,6.1-36,14.7l-5.2-5.2C249.2,406.8,263.5,400.6,279.3,399.8
		z"/>
	<path id="XMLID_32084_" class="st3" d="M259.4,485.1l-5.2,5.2c-4.7-5.5-7.8-12.4-8.7-19.9h7.4C253.7,475.9,256,480.9,259.4,485.1z"
		/>
	<path id="XMLID_32083_" class="st3" d="M253.7,442.6l5.2,5.2c-3.4,4.3-5.6,9.5-6.1,15.2h-7.3C246,455.3,249.1,448.2,253.7,442.6z"
		/>
	<path id="XMLID_32082_" class="st3" d="M249,495.4l-5.2,5.2c-7.3-8.2-12.1-18.7-13-30.3h7.3C239.1,479.9,243,488.6,249,495.4z"/>
	<path id="XMLID_32081_" class="st3" d="M243.4,432.2l5.2,5.2c-5.9,7-9.8,15.9-10.4,25.6h-7.3C231.5,451.3,236.1,440.6,243.4,432.2z
		"/>
	<path id="XMLID_32080_" class="st3" d="M238.7,505.7l-5.2,5.2c-10-10.8-16.4-25-17.3-40.6h7.3C224.5,483.9,230.1,496.2,238.7,505.7
		z"/>
	<path id="XMLID_32079_" class="st3" d="M233,421.9l5.2,5.2c-8.6,9.7-14,22.2-14.7,36h-7.3C216.9,447.2,223.1,432.9,233,421.9z"/>
	<g id="XMLID_30479_">
		<path id="XMLID_32076_" class="st1" d="M457.7,21.6c41,25.3,80.5,281.3,48.1,318.3c-37,42.9-402.5,39.6-443.3,3.1
			C27.4,319.3,59.1,96,93.5,37c8-13.7,14.2-25.7,100.8-33.3C298.5-5.5,426.3,3,457.7,21.6z M494.2,333.8
			c26.7-19.6-0.4-258.4-41.4-300.5c-24.8-23.1-239.7-25-314.9-9.8c-21.6,4.5-25.2,8.2-29,13.2C69.8,87.8,43.7,318.9,71,334.1
			C133.8,369.8,464.8,361.4,494.2,333.8z"/>
	</g>
	<path id="XMLID_30478_" class="st4" d="M188.5,86.6c-0.3-1.4-1.6-2.3-3-2c-17.4,3.4-29.6,13.2-37.5,29.9c-0.6,1.3-0.1,2.8,1.2,3.4
		c0.4,0.2,0.7,0.2,1.1,0.2c1,0,1.9-0.5,2.3-1.5c7.1-15.2,18.2-24,33.9-27.1C187.9,89.3,188.8,87.9,188.5,86.6z"/>
	<path id="XMLID_30477_" class="st4" d="M132.3,118.1c0.4,0.3,0.9,0.4,1.4,0.4c0.9,0,1.7-0.4,2.2-1.2c17.8-28.5,40.2-43.5,66.5-44.4
		c1.4-0.1,2.5-1.2,2.5-2.7c-0.1-1.4-1.2-2.5-2.7-2.5c-28.1,1-51.9,16.8-70.6,46.8C130.7,115.8,131.1,117.3,132.3,118.1z"/>
	<path id="XMLID_30476_" class="st4" d="M145.4,83.1c0.6,0,1.2-0.2,1.7-0.6c16.2-14.3,34.8-21.3,58.4-22c1.4,0,2.5-1.2,2.5-2.6
		c0-1.4-1.2-2.5-2.6-2.5c-24.5,0.8-44.7,8.4-61.6,23.3c-1.1,0.9-1.2,2.6-0.2,3.6C144,82.8,144.7,83.1,145.4,83.1z"/>
	<path id="XMLID_30475_" class="st4" d="M414.9,277.1c0.2,0,0.5,0,0.8-0.1c1.4-0.4,2.1-1.9,1.7-3.2c-6.8-22.2-20.4-42.6-38.1-57.5
		c-1.1-0.9-2.7-0.8-3.6,0.3c-0.9,1.1-0.8,2.7,0.3,3.6c17,14.3,30,33.9,36.5,55.1C412.8,276.4,413.8,277.1,414.9,277.1z"/>
	<path id="XMLID_30474_" class="st4" d="M377.3,198.9c-1.1-0.9-2.7-0.7-3.6,0.4c-0.9,1.1-0.7,2.7,0.4,3.6
		c25.8,20.2,44.2,48.9,51.9,80.7c0.3,1.2,1.3,2,2.5,2c0.2,0,0.4,0,0.6-0.1c1.4-0.3,2.2-1.7,1.9-3.1
		C423.1,249.4,404,219.8,377.3,198.9z"/>
	<path id="XMLID_30473_" class="st4" d="M369.4,185c24.4,17.3,44.1,40.8,56.8,67.9c0.4,0.9,1.4,1.5,2.3,1.5c0.4,0,0.7-0.1,1.1-0.2
		c1.3-0.6,1.8-2.1,1.2-3.4c-13.1-27.9-33.3-52.1-58.5-69.9c-1.2-0.8-2.8-0.5-3.6,0.6C368,182.6,368.3,184.2,369.4,185z"/>
	<path id="XMLID_30472_" class="st5" d="M37.5,413.8l65.6,208l109.1-34.4c5.7-1.8,8.9-7.9,7.1-13.6l-59.1-187.3
		c-1.8-5.7-7.9-8.9-13.6-7.1L37.5,413.8z"/>
	<path id="XMLID_30471_" class="st5" d="M404.6,386.5l-59.1,187.3c-1.8,5.7,1.4,11.8,7.1,13.6l109.1,34.4l65.6-208l-109.1-34.4
		C412.5,377.6,406.4,380.7,404.6,386.5z"/>
</g>
</svg>
